<?xml version="1.0" encoding="iso-8859-1"?>
<!-- Generator: Adobe Illustrator 19.0.0, SVG Export Plug-In . SVG Version: 6.00 Build 0)  -->
<svg version="1.1" id="Layer_1" xmlns="http://www.w3.org/2000/svg" xmlns:xlink="http://www.w3.org/1999/xlink" x="0px" y="0px"
	 viewBox="0 0 512 512" style="enable-background:new 0 0 512 512;" xml:space="preserve">
<g>
	<g>
		<path d="M504.496,83.003c4.144,0,7.504-3.36,7.504-7.504V40.504c0-4.144-3.36-7.504-7.504-7.504H7.504C3.36,33,0,36.36,0,40.504
			v34.995c0,4.144,3.36,7.504,7.504,7.504h22.424v268.614H7.504c-4.144,0-7.504,3.36-7.504,7.504v34.995
			c0,4.144,3.36,7.504,7.504,7.504h20.917c-4.839,11.697-7.515,24.316-7.515,37.37v32.506c0,4.144,3.36,7.504,7.504,7.504h202.491
			c4.144,0,7.504-3.36,7.504-7.504V438.99c0-13.054-2.676-25.673-7.515-37.37h156.274c4.144,0,7.504-3.36,7.504-7.504
			s-3.36-7.504-7.504-7.504H223.213c-0.192-0.31-0.395-0.614-0.591-0.922c-0.175-0.277-0.353-0.552-0.531-0.828
			c-0.291-0.449-0.581-0.898-0.879-1.344c-0.474-0.711-0.957-1.416-1.448-2.116c-0.025-0.035-0.049-0.071-0.074-0.107
			c-3.671-5.221-7.815-10.13-12.361-14.67h267.239h22.424v19.987h-84.814c-4.144,0-7.504,3.36-7.504,7.504
			c0,4.144,3.36,7.504,7.504,7.504h92.318c4.144,0,7.504-3.36,7.504-7.504V359.12c0-4.144-3.36-7.504-7.504-7.504h-22.424V83.003
			H504.496z M15.008,386.613v-19.987h22.424h14.55c-4.546,4.541-8.692,9.45-12.363,14.673c-0.018,0.026-0.036,0.053-0.054,0.079
			c-0.498,0.709-0.987,1.425-1.467,2.145c-0.295,0.441-0.582,0.885-0.87,1.331c-0.181,0.281-0.362,0.561-0.54,0.843
			c-0.196,0.305-0.397,0.607-0.588,0.916H15.008z M212.398,397.798c0.108,0.192,0.235,0.367,0.358,0.547
			c6.955,12.562,10.645,26.415,10.645,40.646v25.002h-0.004H35.914v-25.002c0-14.229,3.688-28.081,10.642-40.641
			c0.124-0.181,0.253-0.359,0.361-0.552c4.881-8.67,11.276-16.629,18.826-23.503c0.156-0.142,0.312-0.284,0.469-0.424
			c1.219-1.096,2.468-2.162,3.746-3.2c0.123-0.1,0.243-0.203,0.367-0.303c0.59-0.475,1.192-0.94,1.794-1.403
			c0.485-0.371,0.975-0.736,1.467-1.099c0.697-0.515,1.401-1.022,2.113-1.519c7.885-5.498,16.522-9.818,25.543-12.823l8.865,17.222
			l-12.86,55.822c-0.607,2.635,0.251,5.394,2.246,7.22l25.099,22.97c1.434,1.313,3.25,1.968,5.066,1.968
			c1.816,0,3.632-0.656,5.067-1.968l25.099-22.97c1.995-1.826,2.854-4.584,2.246-7.22l-12.86-55.822l8.865-17.222
			c9.029,3.008,17.673,7.333,25.564,12.838c0.696,0.487,1.385,0.983,2.067,1.486c0.503,0.37,1.005,0.744,1.501,1.125
			c0.597,0.458,1.192,0.919,1.777,1.39c0.146,0.117,0.288,0.239,0.433,0.357c1.254,1.021,2.481,2.067,3.679,3.144
			c0.162,0.145,0.323,0.292,0.484,0.438C201.126,381.174,207.52,389.13,212.398,397.798z M137.904,257.021
			c5.814,8.489,16.213,19.218,32.634,21.85v13.923c0,21.992-17.457,39.975-39.241,40.84c-0.458-0.013-0.915-0.029-1.375-0.036
			c-0.054-0.001-0.109-0.004-0.163-0.005c-0.068-0.001-0.138-0.001-0.206,0c-0.054,0.001-0.109,0.004-0.163,0.005
			c-0.459,0.007-0.917,0.023-1.375,0.036c-21.784-0.865-39.24-18.848-39.24-40.84V279.19
			C114.048,277.249,129.601,265.743,137.904,257.021z M88.774,264.13v-12.975c0-4.931,0.877-9.661,2.484-14.043
			c5.74-15.644,20.786-26.839,38.398-26.839c16.203,0,30.233,9.474,36.844,23.174c2.586,5.361,4.037,11.368,4.037,17.709v12.383
			c-17.162-4.279-24.232-21.955-24.552-22.78c-1.041-2.747-3.577-4.656-6.509-4.851c-2.922-0.194-5.694,1.318-7.089,3.903
			C131.867,240.747,120.087,261.235,88.774,264.13z M124.006,377.259h11.3l11.153,48.414l-16.803,15.379l-16.803-15.379
			L124.006,377.259z M116.203,349.803c1.43-0.233,2.864-0.43,4.3-0.596c0.203-0.023,0.406-0.043,0.608-0.065
			c1.158-0.126,2.316-0.227,3.477-0.309c0.323-0.023,0.646-0.049,0.969-0.068c0.947-0.057,1.894-0.085,2.842-0.112
			c0.419,0.009,0.834,0.032,1.256,0.032c0.421,0,0.836-0.022,1.255-0.032c0.948,0.027,1.895,0.056,2.842,0.113
			c0.323,0.019,0.645,0.045,0.969,0.068c1.161,0.082,2.321,0.183,3.479,0.309c0.202,0.022,0.404,0.041,0.606,0.065
			c1.437,0.166,2.872,0.363,4.301,0.596l-6.406,12.447h-14.09L116.203,349.803z M474.568,67.995H123.034h-0.001
			c-4.144,0-7.504,3.36-7.504,7.504c0,4.144,3.36,7.504,7.504,7.504h0.001h344.03v268.615H188.744
			c-8.406-5.439-17.583-9.814-27.302-12.89c14.551-10.1,24.104-26.919,24.104-45.934v-20.825v-20.812c0-1.731-0.09-3.44-0.245-5.131
			h13.2v65.55c0,4.144,3.36,7.504,7.504,7.504s7.504-3.36,7.504-7.504v-65.55h83.851l21.623,46.432
			c1.232,2.646,3.886,4.336,6.802,4.336c0.018,0,0.036,0,0.054,0c2.938-0.021,5.592-1.754,6.794-4.434l20.775-46.334h11.086
			c-0.487,2.4,0.203,4.991,2.076,6.841c1.462,1.444,3.368,2.164,5.272,2.164c1.937,0,3.872-0.745,5.34-2.231l8.892-9.005
			c2.886-2.923,2.886-7.622,0-10.545l-8.892-9.004c-2.912-2.95-7.662-2.98-10.612-0.067c-1.873,1.849-2.564,4.439-2.076,6.84
			h-57.567l-22.933-49.248c-1.129-2.424-3.463-4.065-6.127-4.306c-2.668-0.241-5.254,0.955-6.8,3.138l-5.872,8.294l-14.049-30.773
			c-1.202-2.631-3.808-4.337-6.7-4.386c-2.896-0.028-5.554,1.569-6.844,4.158l-24.093,48.382v-76.123
			c0.495,0.1,0.998,0.154,1.501,0.154c1.937,0,3.872-0.745,5.34-2.232c2.912-2.949,2.882-7.7-0.067-10.612l-9.005-8.892
			c-2.923-2.886-7.622-2.886-10.545,0l-9.005,8.892c-2.949,2.913-2.979,7.663-0.067,10.612c1.85,1.873,4.44,2.564,6.841,2.076
			v100.866h-15.43c-0.426,0-0.841,0.044-1.249,0.112c-8.071-20.951-28.404-35.863-52.165-35.863
			c-30.818,0-55.889,25.073-55.889,55.89v20.818v20.818c0,19.015,9.553,35.833,24.104,45.934c-9.72,3.076-18.897,7.451-27.302,12.89
			H44.936V83.003H98.02c4.144,0,7.504-3.36,7.504-7.504c0-4.144-3.36-7.504-7.504-7.504H37.432H15.008V48.008h481.984v19.987
			H474.568z M217.955,231.018L217.955,231.018l26.07-52.354l12.931,28.327c1.115,2.442,3.45,4.103,6.123,4.354
			c2.667,0.253,5.277-0.944,6.828-3.135l5.937-8.386l14.526,31.193H217.955z M313.915,246.026h23.044l-11.303,25.211
			L313.915,246.026z"/>
	</g>
</g>
<g>
</g>
<g>
</g>
<g>
</g>
<g>
</g>
<g>
</g>
<g>
</g>
<g>
</g>
<g>
</g>
<g>
</g>
<g>
</g>
<g>
</g>
<g>
</g>
<g>
</g>
<g>
</g>
<g>
</g>
</svg>
