<?xml version="1.0" encoding="iso-8859-1"?>
<!-- Generator: Adobe Illustrator 16.0.0, SVG Export Plug-In . SVG Version: 6.00 Build 0)  -->
<!DOCTYPE svg PUBLIC "-//W3C//DTD SVG 1.1//EN" "http://www.w3.org/Graphics/SVG/1.1/DTD/svg11.dtd">
<svg version="1.1" id="Capa_1" xmlns="http://www.w3.org/2000/svg" xmlns:xlink="http://www.w3.org/1999/xlink" x="0px" y="0px"
	 width="256.539px" height="256.539px" viewBox="0 0 256.539 256.539" style="enable-background:new 0 0 256.539 256.539;"
	 xml:space="preserve">
<g>
	<g id="_x38__47_">
		<g>
			<path d="M45.852,143.504c5.542,0,11.093,0,16.635,0c2.184,0,3.638-1.427,4.387-3.347c2.585-6.657,5.175-13.319,7.765-19.969
				c3.3,6.786,6.608,13.565,9.904,20.35c1.765,3.616,7.373,2.55,8.32-1.087c4.799-18.425,9.6-36.853,14.398-55.281
				c4.088,18.662,8.176,37.331,12.261,55.992c1.051,4.794,7.297,3.859,8.777,0c4.515-11.801,9.028-23.607,13.538-35.411
				c3.758,11.662,7.505,23.321,11.263,34.985c1.158,3.585,6.368,4.712,8.323,1.086c2.523-4.682,5.052-9.373,7.565-14.061
				c1.671,4.464,3.357,8.933,5.022,13.4c0.722,1.925,2.225,3.342,4.388,3.342c14.229,0,28.457,0,42.686,0c5.87,0,5.87-9.1,0-9.1
				c-12.299,0-24.604,0-36.917,0c-1.604,0-2.55,0.224-3.108,0.498c0.046-0.812-0.162-2.204-1.016-4.484
				c-1.979-5.278-3.96-10.552-5.931-15.828c-1.3-3.453-6.297-4.837-8.322-1.087c-2.417,4.487-4.835,8.98-7.247,13.467
				c-3.98-12.364-7.962-24.729-11.943-37.089c-1.452-4.51-7.19-4.146-8.779,0c-4.24,11.09-8.485,22.186-12.723,33.278
				c-4.364-19.9-8.727-39.801-13.083-59.699c-0.978-4.464-7.67-4.245-8.777,0c-5.362,20.581-10.722,41.167-16.077,61.748
				c-3.021-6.205-6.042-12.413-9.064-18.621c-1.904-3.91-7.036-2.216-8.32,1.087c-3.057,7.855-6.109,15.719-9.168,23.577
				c-0.597,1.549-1.039,2.503-1.371,3.153c-4.461,0-8.94,0-13.401,0C39.981,134.404,39.981,143.504,45.852,143.504z"/>
			<path d="M0,22.364v169.163h91.985v34.83h69.414v-34.83h95.141V22.364H0z M230.54,165.527H25.999V48.363H230.54V165.527z"/>
			<rect x="54.613" y="227.017" width="144.159" height="7.159"/>
		</g>
	</g>
</g>
<g>
</g>
<g>
</g>
<g>
</g>
<g>
</g>
<g>
</g>
<g>
</g>
<g>
</g>
<g>
</g>
<g>
</g>
<g>
</g>
<g>
</g>
<g>
</g>
<g>
</g>
<g>
</g>
<g>
</g>
</svg>
